<?xml version="1.0" encoding="utf-8"?>
<!-- Generator: Adobe Illustrator 16.0.0, SVG Export Plug-In . SVG Version: 6.00 Build 0)  -->
<!DOCTYPE svg PUBLIC "-//W3C//DTD SVG 1.1//EN" "http://www.w3.org/Graphics/SVG/1.1/DTD/svg11.dtd">
<svg version="1.1" id="Disseny" xmlns="http://www.w3.org/2000/svg" xmlns:xlink="http://www.w3.org/1999/xlink" x="0px" y="0px"
	 width="150px" height="46px" viewBox="0 0 150 46" enable-background="new 0 0 150 46" xml:space="preserve">
<g>
	<polygon fill="#0063AF" points="46.2,46.2 0,46.2 0,0 11.2,0 1.9,9.2 13.8,3.1 7.7,15 17.1,5.5 15,18.8 21,6.8 23.1,20 25.1,6.8 
		31.2,18.8 29,5.5 38.5,15 32.4,3.1 44.3,9.2 35,0 46.2,0 	"/>
</g>
<g>
	<path fill="#0063AF" d="M61.6,8.9c0-1.1,0-2.3-0.5-3.2h3.2c-0.5,0.8-0.5,2.1-0.5,3.2V17c0,1.5,0,2.9-0.4,4.4
		c-0.3,1.4-1,2.6-2.7,3.1c0.9-2.5,0.9-5.8,0.9-7.3V8.9z"/>
	<path fill="#0063AF" d="M70.5,20.1h2.8c1.5,0,3-0.4,4.2-1.4L77,21c-0.7,0-1.4,0.1-2.3,0.1h-7c0.5-0.8,0.6-2.1,0.6-3.2V8.9
		c0-1.1,0-2.3-0.5-3.2h8.4l0.1,1.9c-0.8-0.7-2.1-0.9-3.6-0.9h-2.2v5.8c1.9,0,3.8,0,5.7-0.2c-0.8,1.4-3.6,1.4-5.1,1.4h-0.6V20.1z"/>
	<path fill="#0063AF" d="M79.3,18.1c0.7,1,1.8,2.4,4.3,2.4c1.8,0,3.2-1.1,3.2-3c0-4.1-6.9-3.5-6.9-8c0-2.8,2.3-4.2,4.9-4.2
		c1.3,0,2.5,0.1,3.7,0.1v2.2c-1.1-1.1-1.7-1.4-3.4-1.4c-1.7,0-2.9,0.8-2.9,2.7c0,3.7,6.9,3.3,6.9,7.9c0,3-2.9,4.7-5.6,4.7
		c-1.2,0-3-0.4-4.1-0.8V18.1z"/>
	<path fill="#0063AF" d="M104.7,5.7c-0.5,0.8-0.5,2.1-0.5,3.2V18c0,1.1,0,2.3,0.5,3.1l-2.9,0.1l0.1-1.6c0-0.1,0-0.1-0.1-0.1
		c0,0-0.1,0.1-0.3,0.3c-0.9,0.8-2.4,1.7-4.7,1.7c-2.8,0-4.7-1.1-4.7-4.1V8.9c0-1.1,0-2.3-0.5-3.2h3.2c-0.5,0.8-0.5,2.1-0.5,3.2v7
		c0.1,2.6,1.1,4.2,3.9,4.2c2.8,0,3.7-1.8,3.7-4.6c0-0.9,0.1-1.9,0.1-2.8V8.9c0-1.1,0-2.3-0.5-3.2H104.7z"/>
	<path fill="#0063AF" d="M107.6,2.3c0.6,0,1.1,0.5,1.1,1.1s-0.5,1.1-1.1,1.1c-0.6,0-1.1-0.5-1.1-1.1S106.9,2.3,107.6,2.3z
		 M108.8,8.9c0-1.1,0-2.3-0.5-3.2h3.2C111,6.5,111,7.8,111,8.9v9.1c0,1.1,0,2.3,0.5,3.2h-3.2c0.5-0.8,0.5-2.1,0.5-3.2V8.9z
		 M112.3,2.3c0.6,0,1.1,0.5,1.1,1.1s-0.5,1.1-1.1,1.1c-0.6,0-1.1-0.5-1.1-1.1S111.6,2.3,112.3,2.3z"/>
	<path fill="#0063AF" d="M118.2,21.1c0.5-0.8,0.5-2.1,0.5-3.2v-11h-3.2c-0.6,0-1.1,0.1-1.7,0.5l0.5-1.7h12.1c-0.4,1-1.9,1.2-2.9,1.2
		h-2.7v11c0,1.1,0,2.3,0.5,3.2H118.2z"/>
	<path fill="#0063AF" d="M130.7,20.1h2.8c1.5,0,3-0.4,4.2-1.4l-0.4,2.2c-0.7,0-1.4,0.1-2.3,0.1h-7c0.5-0.8,0.6-2.1,0.6-3.2V8.9
		c0-1.1,0-2.3-0.5-3.2h8.4l0.1,1.9c-0.8-0.7-2.1-0.9-3.6-0.9h-2.2v5.8c1.9,0,3.8,0,5.7-0.2c-0.8,1.4-3.6,1.4-5.1,1.4h-0.6V20.1z"/>
	<path fill="#0063AF" d="M139.4,18.1c0.7,1,1.8,2.4,4.3,2.4c1.8,0,3.2-1.1,3.2-3c0-4.1-6.9-3.5-6.9-8c0-2.8,2.3-4.2,4.9-4.2
		c1.3,0,2.5,0.1,3.7,0.1v2.2c-1.1-1.1-1.7-1.4-3.4-1.4c-1.7,0-2.9,0.8-2.9,2.7c0,3.7,6.9,3.3,6.9,7.9c0,3-2.9,4.7-5.6,4.7
		c-1.2,0-3-0.4-4.2-0.8V18.1z"/>
	<path fill="#B2B2B2" d="M62.7,33.5c0,0.5-0.1,0.8-0.1,1.4c0,2.2,1,4.4,3.5,4.4c1.2,0,2.3-0.5,2.9-1.1v0.3c0,1.3-2,2.5-3.8,2.5
		c-3.2,0-4.7-2.8-4.7-5.8c0-3.1,1.7-5.8,5-5.8c2.3,0,3.7,1.5,3.7,3.1c0,1.1-0.8,1.1-2.3,1.1H62.7z M65.3,32.7c1.2,0,1.8,0,1.8-0.9
		c0-0.9-0.7-1.8-1.8-1.8c-1.5,0-2.2,1.5-2.5,2.7H65.3z"/>
	<path fill="#B2B2B2" d="M79.1,40.7L79,39.8c0-0.1,0-0.2-0.1-0.2c-0.2,0-1,1.2-3.3,1.2c-2.9,0-4.2-2.8-4.2-5.4
		c0-3.9,2.5-6.2,6.3-6.2c0.4,0,0.8,0,1.3,0.1v-3c0-1,0-1.9-0.5-2.4l2.3-0.4v14.3c0,0.9,0,2,0.4,2.6L79.1,40.7z M79,31.9
		c0-1.1-0.3-1.7-1.5-1.7c-2.7,0-4.1,2-4.1,4.8c0,2.2,1.1,4.6,3.5,4.6c1.4,0,2.1-1.1,2.1-2.4V31.9z"/>
	<path fill="#B2B2B2" d="M90.7,31.3c0-0.8,0-1.3-0.5-1.6l2.3-0.4V38c0,1,0,1.9,0.5,2.4l-2.3,0.1v-0.8c0-0.2,0-0.4-0.1-0.4
		c-0.2,0-1.1,1.5-3.2,1.5c-1.6,0-2.9-1.1-2.9-3.2v-6.4c0-0.8,0-1.3-0.5-1.6c0.7-0.1,1.6-0.3,2-0.3c0.3,0,0.4,0.2,0.4,0.5v6.5
		c0,1.5,0.2,3.2,2.1,3.2c2.2,0,2.3-2.4,2.3-4.1V31.3z"/>
	<path fill="#B2B2B2" d="M103.8,32h-0.1c-0.6-1.1-1-1.9-2.4-1.9c-2.1,0-3.3,2.2-3.3,4.9c0,2.4,0.9,4.4,3.5,4.4c0.9,0,2-0.4,2.6-1.1
		v0.4c0,1.3-1.7,2.1-3.5,2.1c-3,0-4.8-2.5-4.8-5.4c0-3.5,2.2-6.1,5.8-6.1c1.2,0,2.2,0.2,2.2,0.3V32z"/>
	<path fill="#B2B2B2" d="M112.4,40.5c-0.2-0.9-0.2-1.5-0.4-1.5c-0.1,0-0.1,0-0.1,0.1c-0.6,0.9-1.1,1.7-2.8,1.7c-1.7,0-3-0.9-3-2.7
		c0-2.1,2.7-3,4.3-3.7c1.4-0.7,1.7-0.7,1.7-2.3c0-1.2-0.5-2.1-1.9-2.1c-2.3,0-1.4,2.3-2.9,2.3c-0.5,0-0.9-0.3-0.9-0.8
		c0-1.6,2.4-2.2,4.3-2.2c1.7,0,3.2,0.4,3.2,2v5.3c0,1.4-0.1,2.9,0.7,3.9L112.4,40.5z M110,39.4c1.4,0,2.2-1.3,2.2-2.7v-2.4l-1.3,0.7
		c-1.8,0.9-2.7,1.4-2.7,2.8C108.1,38.9,108.9,39.4,110,39.4z"/>
	<path fill="#B2B2B2" d="M124.8,32h-0.1c-0.6-1.1-1-1.9-2.4-1.9c-2.1,0-3.3,2.2-3.3,4.9c0,2.4,0.9,4.4,3.5,4.4c0.9,0,2-0.4,2.6-1.1
		v0.4c0,1.3-1.7,2.1-3.5,2.1c-3,0-4.8-2.5-4.8-5.4c0-3.5,2.2-6.1,5.8-6.1c1.2,0,2.2,0.2,2.2,0.3V32z"/>
	<path fill="#B2B2B2" d="M129.7,25.3l1.1,1.6L129,28l-1.1-1.6L129.7,25.3z M130.3,29.3v8.5c0,0.9,0,1.9,0.4,2.6H128
		c0.4-0.7,0.4-1.7,0.4-2.6v-6.5c0-0.8,0-1.3-0.5-1.6L130.3,29.3z"/>
	<path fill="#B2B2B2" d="M138.3,40.8c-3.3,0-4.7-2.7-4.7-5.4c0-3.7,2.1-6.2,5.7-6.2c3.3,0,4.7,2.7,4.7,5.4
		C144,38.4,141.9,40.8,138.3,40.8z M139.1,39.9c2.3,0,2.9-2.2,2.9-4.2c0-2.8-0.9-5.6-3.4-5.6c-2.3,0-2.9,2.2-2.9,4.2
		C135.7,37.2,136.5,39.9,139.1,39.9z M137.9,28.1H137l3.5-3.4c0.3-0.3,0.6-0.7,1-0.7c0.4,0,0.8,0.4,0.8,0.8c0,0.3-0.2,0.6-0.5,0.7
		L137.9,28.1z"/>
</g>
</svg>
