<?xml version="1.0" encoding="utf-8"?>
<!-- Generator: Adobe Illustrator 16.0.0, SVG Export Plug-In . SVG Version: 6.00 Build 0)  -->
<!DOCTYPE svg PUBLIC "-//W3C//DTD SVG 1.1//EN" "http://www.w3.org/Graphics/SVG/1.1/DTD/svg11.dtd">
<svg version="1.1" id="Layer_1" xmlns="http://www.w3.org/2000/svg" xmlns:xlink="http://www.w3.org/1999/xlink" x="0px" y="0px"
	 width="92px" height="46px" viewBox="0 0 92 46" enable-background="new 0 0 92 46" xml:space="preserve">
<g>
	<path fill="#1C75BC" d="M39.4,28.8C39.4,28.8,39.4,28.8,39.4,28.8l0-11.8c0.2-0.1,0.3-0.3,0.5-0.5c0.4-0.7,0.2-1.6-0.5-2
		c-0.4-0.2-0.9-0.2-1.3-0.1L27.8,8.6c0-0.3-0.2-0.6-0.4-0.9c-0.1-0.2-0.3-0.3-0.5-0.4c-0.4-0.3-1-0.2-1.4,0L15.4,1.4
		c0-0.5-0.3-0.9-0.7-1.2c-0.7-0.4-1.6-0.2-2,0.5c-0.1,0.2-0.2,0.5-0.2,0.8L2.4,7.3C1.7,7,0.8,7.2,0.4,7.9C0.1,8.5,0.3,9.4,0.9,9.8
		v11.8c-0.1,0.1-0.2,0.2-0.3,0.3c-0.1,0.1-0.2,0.2-0.2,0.3c-0.4,0.7-0.2,1.6,0.5,2c0,0,0,0,0,0v11.7c-0.2,0.1-0.4,0.3-0.5,0.5
		c-0.4,0.7-0.2,1.6,0.5,2c0.5,0.3,1,0.2,1.4,0l10.2,5.9c0,0.5,0.2,1,0.7,1.3c0.7,0.4,1.6,0.2,2-0.5c0.1-0.2,0.2-0.5,0.2-0.7
		l10.1-5.8c0,0,0,0,0,0c0.4,0.2,0.8,0.2,1.2,0.1c0.4-0.1,0.7-0.3,0.9-0.7c0.1-0.2,0.2-0.5,0.2-0.7L38,31.3c0,0,0,0,0,0
		c0.7,0.4,1.6,0.2,2-0.5S40.1,29.2,39.4,28.8z M37.4,29.3c-0.1,0.2-0.2,0.5-0.2,0.7l-10.1,5.8c0,0,0,0,0,0c0,0,0,0-0.1,0V24.2
		c0.2-0.1,0.4-0.3,0.6-0.6c0.4-0.7,0.2-1.6-0.5-2c0,0,0,0-0.1,0V9.9c0,0,0,0,0.1,0l10,5.8c-0.1,0.5,0.2,1.1,0.7,1.4c0,0,0.1,0,0.1,0
		v11.7C37.8,28.9,37.6,29.1,37.4,29.3z M14.7,42.9C14.7,42.9,14.7,42.9,14.7,42.9c-0.5-0.3-1-0.3-1.5,0L3,37c0-0.5-0.2-1-0.7-1.3
		c0,0,0,0,0,0V24.1c0,0,0,0,0,0l10.1,5.9c0,0.5,0.2,1,0.7,1.3c0,0,0.1,0,0.1,0c0,0,0,0,0,0c0.5,0.3,1,0.2,1.4,0l10.1,5.9L14.7,42.9z
		 M2.3,9.9c0.2-0.1,0.5-0.3,0.6-0.6c0.1-0.3,0.2-0.5,0.2-0.8l10.1-5.8c0.5,0.3,1,0.2,1.5,0l10.1,5.8c0,0.1,0,0.1,0,0.2l-10,5.8
		c0,0-0.1,0-0.1-0.1c-0.7-0.4-1.6-0.2-2,0.5c-0.1,0.2-0.2,0.5-0.2,0.8L2.4,21.5c0,0,0,0,0,0V9.9z M3.1,22.7l10-5.8c0,0,0,0,0.1,0
		v11.7c0,0,0,0-0.1,0L3.1,22.9C3.1,22.8,3.1,22.7,3.1,22.7z M25.5,9.9C25.5,9.9,25.6,9.9,25.5,9.9c0.1,0.1,0.1,0.1,0.2,0.1v11.5
		l-10.2-5.9L25.5,9.9z M14.7,28.8C14.7,28.7,14.7,28.7,14.7,28.8C14.7,28.7,14.7,28.7,14.7,28.8L14.6,17c0.1,0,0.1-0.1,0.2-0.1
		l10.1,5.8c0,0.1,0,0.1,0,0.2L14.7,28.8z M15.4,30l10.2-5.9c0,0,0,0,0,0v11.7c0,0-0.1,0-0.1,0.1L15.4,30C15.4,30,15.4,30,15.4,30z"
		/>
	<path fill="#1C75BC" d="M82.1,16h-0.3h-6.5h-2.5h-0.3v8.7L66.9,16h-2.5V30L59.3,16h-1l-4.9,13.2h-7.2V16h-1.1v14.2h7.9h0.7h0.5
		l1.2-3.4h6.6l1.2,3.4h1.1h0h2.7v-8.7l5.6,8.7h2.5h6.9v-2.5h-6.6v-3.4h5.6v-2.5h-5.6v-3.3h6.2h0.3h3.4v11.7h2.8V18.5H92V16H82.1z
		 M55.8,25.8l3-8.3l3,8.3H55.8z"/>
</g>
</svg>
